<svg id="Componente_2_3" data-name="Componente 2 – 3" xmlns="http://www.w3.org/2000/svg" xmlns:xlink="http://www.w3.org/1999/xlink" width="125.969" height="154.698" viewBox="0 0 125.969 154.698">
  <defs>
    <linearGradient id="linear-gradient" x1="0.5" y1="0.329" x2="0.5" y2="0.943" gradientUnits="objectBoundingBox">
      <stop offset="0.28" stop-color="#1eeb00"/>
      <stop offset="0.51" stop-color="#1ee700"/>
      <stop offset="0.73" stop-color="#1edb00"/>
      <stop offset="0.95" stop-color="#1ec800"/>
      <stop offset="1" stop-color="#1ec200"/>
    </linearGradient>
  </defs>
  <g id="Grupo_20666" data-name="Grupo 20666" transform="translate(0 125.803)">
    <path id="Trazado_27405" data-name="Trazado 27405" d="M110.154,132.27H100.047l-8.2-13.555h-.119V132.27H83.4V107.3h8.323v8.561h.119l7.967-8.561H109.8l-9.631,9.631Z" transform="translate(15.815 -105.397)" fill="#004b40"/>
    <g id="Grupo_20661" data-name="Grupo 20661">
      <path id="Trazado_27406" data-name="Trazado 27406" d="M74.709,132.385V118.71c0-2.735-.713-5.232-3.686-5.232s-4.4,2.5-4.4,5.351v13.555H58.3v-24.97h7.967v2.259a10.107,10.107,0,0,1,7.491-2.973c6.659,0,9.156,5.232,9.156,10.226v15.458Z" transform="translate(11.069 -105.512)" fill="#004b40"/>
      <g id="Grupo_20660" data-name="Grupo 20660">
        <path id="Trazado_27407" data-name="Trazado 27407" d="M47.3,131.5v-22.83l7.848-2.973v28.894Z" transform="translate(8.989 -105.7)" fill="#004b40"/>
        <g id="Grupo_20659" data-name="Grupo 20659" transform="translate(0 1.189)">
          <path id="Trazado_27408" data-name="Trazado 27408" d="M34.493,133.216C27,133.216,20.7,127.984,20.7,119.9s6.3-13.2,13.793-13.2,13.912,4.875,13.912,13.08S42.1,133.216,34.493,133.216Zm0-19.739c-3.805,0-5.826,3.21-5.826,6.421s2.021,6.421,5.945,6.421,5.945-3.211,5.945-6.421S38.417,113.478,34.493,113.478Z" transform="translate(3.96 -106.7)" fill="#004b40"/>
          <path id="Trazado_27409" data-name="Trazado 27409" d="M18.2,124.179a6.421,6.421,0,1,1,0-8.442l4.518-5.113a13.318,13.318,0,1,0,0,18.787Z" transform="translate(0.039 -106.7)" fill="#004b40"/>
        </g>
      </g>
    </g>
  </g>
  <g id="Grupo_20665" data-name="Grupo 20665" transform="translate(11.815)">
    <ellipse id="Elipse_1803" data-name="Elipse 1803" cx="9.394" cy="9.394" rx="9.394" ry="9.394" transform="translate(42.212 1.784)" fill="#fbb040"/>
    <path id="Trazado_27410" data-name="Trazado 27410" d="M54.758,22.017A11.058,11.058,0,1,1,65.817,10.958,11.058,11.058,0,0,1,54.758,22.017Zm0-18.787a7.729,7.729,0,1,0,7.729,7.729,7.729,7.729,0,0,0-7.729-7.729Z" transform="translate(-3.153 0.1)" fill="#004b40"/>
    <path id="Trazado_27411" data-name="Trazado 27411" d="M36.133,93.586,30.9,96.915l-.951-.713c-.476-.357-10.7-9.275-10.7-38.407a65.042,65.042,0,0,1,3.092-19.857c-3.924-4.162-4.994-7.967-6.3-12.723l-1.07-3.924a76.692,76.692,0,0,0-2.854-8.086L11.4,11.54l1.784-.595A29.965,29.965,0,0,1,22.458,9.4a27.23,27.23,0,0,1,18.431,7.253,61.594,61.594,0,0,1,39.953,0A27.23,27.23,0,0,1,99.272,9.519a29.965,29.965,0,0,1,9.275,1.546l1.784.595-.713,1.665a76.7,76.7,0,0,0-2.973,7.848l-1.07,3.924c-1.308,4.756-2.259,8.442-6.3,12.723a65.042,65.042,0,0,1,3.092,19.857c0,29.251-10.226,38.05-10.7,38.407l-.951.713-5.232-3.329-4.637,3.448-.951-1.189a25.21,25.21,0,0,1-4.162-6.778,63.5,63.5,0,0,1-29.727,0,25.209,25.209,0,0,1-4.162,6.778l-.951,1.189Z" transform="translate(-9.26 1.896)" fill="url(#linear-gradient)"/>
    <path id="Trazado_27412" data-name="Trazado 27412" d="M55.23,51.663c3.567,0,10.583-4.043,13.318-10.226s-3.21-8.086-5.589-8.442A59.812,59.812,0,0,0,55.23,32.4a59.812,59.812,0,0,0-7.729.595c-2.378.476-8.323,2.378-5.589,8.442S51.662,51.663,55.23,51.663Z" transform="translate(-3.624 6.245)" fill="#afff6a"/>
    <path id="Trazado_27413" data-name="Trazado 27413" d="M69.172,35.943a60.642,60.642,0,0,0-8.086-.595,60.519,60.519,0,0,0-7.967.595c-1.546.238-5.351,1.308-6.9,4.281a7.134,7.134,0,0,0,.119,6.421c3.092,6.9,10.7,11.177,14.863,11.177s11.653-4.281,14.863-11.177a7.134,7.134,0,0,0,.119-6.421C74.523,37.251,70.718,36.3,69.172,35.943Zm3.805,9.394c-2.616,5.708-9.156,9.275-11.772,9.275s-9.275-3.448-11.772-9.275a4.043,4.043,0,0,1-.238-3.567c.713-1.427,2.854-2.259,4.637-2.616a58.381,58.381,0,0,1,7.491-.595,58.5,58.5,0,0,1,7.491.595c1.784.357,3.924,1.189,4.637,2.616a4.043,4.043,0,0,1-.476,3.686ZM109.363,9.665A31.51,31.51,0,0,0,99.612,8a28.894,28.894,0,0,0-18.906,7.134,63.258,63.258,0,0,0-39.12,0A28.894,28.894,0,0,0,22.8,8.119a31.51,31.51,0,0,0-9.75,1.665L9.6,10.854l1.546,3.329A75.03,75.03,0,0,1,14,21.912l1.07,3.924c1.189,4.518,2.259,8.442,6.064,12.6A66.707,66.707,0,0,0,18.28,57.822c0,12.366,1.784,22.711,5.351,30.678s5.589,8.68,5.945,9.037l1.784,1.546,2.021-1.308,3.21-2.021,2.5,1.9,2.378,1.784,1.9-2.259a28.062,28.062,0,0,0,3.924-5.945,65.042,65.042,0,0,0,27.705,0,28.063,28.063,0,0,0,3.924,5.945l2.021,2.378,2.378-1.784,2.5-1.9,3.21,2.021L91.051,99.2l1.784-1.546c.357-.238,3.21-2.735,5.945-9.037s5.351-18.312,5.351-30.678a66.707,66.707,0,0,0-2.854-19.382c3.686-4.281,4.756-8.2,6.064-12.6l1.07-3.924a75.03,75.03,0,0,1,2.854-7.729l1.546-3.329Zm-5.589,10.7c-.476,1.427-.832,2.854-1.189,4.043-1.07,4.043-1.9,6.9-4.4,9.988A53.983,53.983,0,0,0,92.478,23.22c.713-1.189,2.735-3.567,7.372-5.826l-1.427-2.973c-7.61,3.567-9.394,8.086-9.394,8.323l-.357.832.595.713c.119.119,9.988,13.08,9.988,33.413,0,22.711-6.421,32.462-8.68,35.077l-4.994-3.092-3.924,2.973A15.814,15.814,0,0,1,79.042,88.5l4.043-1.308L82.014,84.1a60.4,60.4,0,0,1-41.736,0l-1.07,3.092L43.251,88.5a15.814,15.814,0,0,1-2.616,4.281l-3.924-2.973-4.994,3.21c-2.259-2.735-8.68-12.247-8.68-35.077a59.272,59.272,0,0,1,9.988-33.413l.595-.713-.357-.832c-.119-.238-1.784-4.756-9.394-8.323l-1.427,2.973c4.637,2.14,6.659,4.637,7.372,5.826a53.984,53.984,0,0,0-5.708,11.177c-2.5-3.092-3.329-5.945-4.4-9.988-.357-1.308-.713-2.616-1.189-4.043s-1.784-5.113-2.378-6.54a23.781,23.781,0,0,1,23.425,6.064l.713.832,1.07-.357a58.145,58.145,0,0,1,39.6,0l1.07.357.713-.832a23.781,23.781,0,0,1,23.425-6.183c-.595,1.427-1.546,3.805-2.378,6.54ZM59.422,43.077V44.5a2.5,2.5,0,1,1-4.994,0V43.077a2.5,2.5,0,0,1,4.994,0ZM45.153,35.111a3.567,3.567,0,1,1-3.567-3.567A3.567,3.567,0,0,1,45.153,35.111Zm22.711,7.967V44.5a2.5,2.5,0,0,1-4.994,0V43.077a2.5,2.5,0,0,1,4.994,0Zm16.528-7.967a3.567,3.567,0,1,1-3.567-3.567A3.567,3.567,0,0,1,84.392,35.111Z" transform="translate(-9.6 1.631)" fill="#004b40"/>
  </g>
</svg>
